<?xml version="1.0" encoding="utf-8"?>
<!-- Generator: Adobe Illustrator 26.1.0, SVG Export Plug-In . SVG Version: 6.00 Build 0)  -->
<svg version="1.1" id="Layer_1" xmlns="http://www.w3.org/2000/svg" xmlns:xlink="http://www.w3.org/1999/xlink" x="0px" y="0px"
	 width="16px" height="16px" viewBox="0 0 16 16" style="enable-background:new 0 0 16 16;" xml:space="preserve">
<style type="text/css">
	.st0{fill:none;stroke:#000000;stroke-width:1.5;stroke-miterlimit:10;}
	.st1{fill:none;}
	.st2{fill:none;stroke:#FFFFFF;stroke-width:1.5;stroke-miterlimit:10;}
	.st3{fill:none;stroke:#000000;stroke-width:1.5;stroke-linejoin:round;stroke-miterlimit:10;}
	.st4{fill:none;stroke:#000000;stroke-width:1.5;stroke-linecap:square;stroke-linejoin:round;stroke-miterlimit:10;}
</style>
<g>
	<g>
		<path d="M3.926,15.5c-0.254,0-0.507-0.079-0.723-0.237c-0.41-0.298-0.594-0.808-0.469-1.3l0.997-3.915L0.623,7.467
			c-0.39-0.324-0.541-0.845-0.384-1.327c0.156-0.482,0.585-0.815,1.091-0.848L5.362,5.03l1.495-3.754C7.043,0.804,7.492,0.5,8,0.5
			s0.956,0.304,1.144,0.776l1.495,3.754l4.032,0.261c0.507,0.033,0.936,0.366,1.092,0.849c0.157,0.482,0.005,1.003-0.386,1.327
			l-3.108,2.581l0.997,3.916c0.125,0.491-0.059,1.002-0.469,1.3c-0.41,0.298-0.951,0.316-1.381,0.045L8,13.149l-3.415,2.159
			C4.381,15.436,4.153,15.5,3.926,15.5z"/>
	</g>
	<rect class="st1" width="16" height="16"/>
</g>
</svg>
