<svg width="16" height="16" viewBox="0 0 16 16" fill="none" xmlns="http://www.w3.org/2000/svg">
<path d="M8.00002 7.17505L6.15849 5.33352L5.33354 6.15848L7.17506 8L5.33354 9.84152L6.15849 10.6665L8.00002 8.82496L9.84154 10.6665L10.6665 9.84152L8.82497 8L10.6665 6.15848L9.84154 5.33352L8.00002 7.17505Z" fill="black"/>
<path fill-rule="evenodd" clip-rule="evenodd" d="M8.00004 2.5C4.96247 2.5 2.50004 4.96244 2.50004 8C2.50004 11.0376 4.96247 13.5 8.00004 13.5C11.0376 13.5 13.5 11.0376 13.5 8C13.5 4.96244 11.0376 2.5 8.00004 2.5ZM1.33337 8C1.33337 4.3181 4.31814 1.33334 8.00004 1.33334C11.6819 1.33334 14.6667 4.3181 14.6667 8C14.6667 11.6819 11.6819 14.6667 8.00004 14.6667C4.31814 14.6667 1.33337 11.6819 1.33337 8Z" fill="black"/>
</svg>
