<?xml version="1.0" encoding="utf-8"?>
<!-- Generator: Adobe Illustrator 26.1.0, SVG Export Plug-In . SVG Version: 6.00 Build 0)  -->
<svg version="1.1" id="Layer_1" xmlns="http://www.w3.org/2000/svg" xmlns:xlink="http://www.w3.org/1999/xlink" x="0px" y="0px"
	 width="20px" height="20px" viewBox="0 0 20 20" style="enable-background:new 0 0 20 20;" xml:space="preserve">
<style type="text/css">
	.st0{fill:none;stroke:#000000;stroke-width:1.5;stroke-miterlimit:10;}
	.st1{fill:none;}
	.st2{fill:none;stroke:#FFFFFF;stroke-width:1.5;stroke-miterlimit:10;}
	.st3{fill:none;stroke:#000000;stroke-width:1.5;stroke-linejoin:round;stroke-miterlimit:10;}
	.st4{fill:none;stroke:#000000;stroke-width:1.5;stroke-linecap:square;stroke-linejoin:round;stroke-miterlimit:10;}
	.st5{fill:none;stroke:#000000;stroke-width:1.5;stroke-linejoin:bevel;stroke-miterlimit:10;}
	.st6{fill:none;stroke:#000000;stroke-width:1.5;stroke-linecap:round;stroke-miterlimit:10;}
	.st7{fill:none;stroke:#FFFFFF;stroke-width:1.5;stroke-linecap:square;stroke-linejoin:round;stroke-miterlimit:10;}
	.st8{fill:none;stroke:#FFFFFF;stroke-width:1.25;stroke-miterlimit:10;}
	.st9{fill:none;stroke:#FF4F5E;stroke-width:1.5;stroke-miterlimit:10;}
	.st10{fill:#FFFFFF;}
	.st11{fill:#0A0A16;}
	.st12{fill:none;stroke:#FFFFFF;stroke-width:1.5;stroke-linejoin:round;stroke-miterlimit:10;}
	.st13{fill:none;stroke:#000000;stroke-width:1.5;stroke-linecap:square;stroke-miterlimit:10;}
	.st14{fill:none;stroke:#000000;stroke-width:1.25;stroke-miterlimit:10;}
	.st15{fill:none;stroke:#000000;stroke-width:1.25;stroke-linejoin:round;stroke-miterlimit:10;}
</style>
<g>
	<path class="st3" d="M1.25,16.5l1.305,0.87C3.171,17.781,3.895,18,4.635,18H5.5c0.811,0,1.601-0.263,2.25-0.75h0
		C8.399,16.763,9.189,16.5,10,16.5h0.5c0.811,0,1.601,0.263,2.25,0.75h0C13.399,17.737,14.189,18,15,18h0.5
		c0.811,0,1.601-0.263,2.25-0.75l1-0.75"/>
	<g>
		<path class="st3" d="M12.621,2.066L3.75,10.936v3.314h3.314l8.871-8.871c0.421-0.421,0.421-1.103,0-1.524l-1.79-1.79
			C13.724,1.645,13.042,1.645,12.621,2.066z"/>
		<line class="st3" x1="14.307" y1="7.007" x2="10.993" y2="3.693"/>
	</g>
	<rect y="0" class="st1" width="20" height="20"/>
</g>
</svg>
