<?xml version="1.0" encoding="utf-8"?>
<!-- Generator: Adobe Illustrator 26.1.0, SVG Export Plug-In . SVG Version: 6.00 Build 0)  -->
<svg version="1.1" id="Layer_1" xmlns="http://www.w3.org/2000/svg" xmlns:xlink="http://www.w3.org/1999/xlink" x="0px" y="0px"
	 width="16px" height="16px" viewBox="0 0 16 16" style="enable-background:new 0 0 16 16;" xml:space="preserve">
<style type="text/css">
	.st0{fill:none;stroke:#000000;stroke-width:1.5;stroke-miterlimit:10;}
	.st1{fill:none;}
	.st2{fill:none;stroke:#FFFFFF;stroke-width:1.5;stroke-miterlimit:10;}
	.st3{fill:none;stroke:#000000;stroke-width:1.5;stroke-linejoin:round;stroke-miterlimit:10;}
	.st4{fill:none;stroke:#000000;stroke-width:1.5;stroke-linecap:square;stroke-linejoin:round;stroke-miterlimit:10;}
	.st5{fill:none;stroke:#000000;stroke-width:1.5;stroke-linejoin:bevel;stroke-miterlimit:10;}
	.st6{fill:none;stroke:#000000;stroke-width:1.5;stroke-linecap:round;stroke-miterlimit:10;}
	.st7{fill:none;stroke:#FFFFFF;stroke-width:1.5;stroke-linecap:square;stroke-linejoin:round;stroke-miterlimit:10;}
	.st8{fill:none;stroke:#FFFFFF;stroke-width:1.25;stroke-miterlimit:10;}
	.st9{fill:none;stroke:#FF4F5E;stroke-width:1.5;stroke-miterlimit:10;}
	.st10{fill:#FFFFFF;}
	.st11{fill:#0A0A16;}
	.st12{fill:none;stroke:#FFFFFF;stroke-width:1.5;stroke-linejoin:round;stroke-miterlimit:10;}
	.st13{fill:none;stroke:#000000;stroke-width:1.5;stroke-linecap:square;stroke-miterlimit:10;}
	.st14{fill:none;stroke:#000000;stroke-width:1.25;stroke-miterlimit:10;}
	.st15{fill:none;stroke:#000000;stroke-width:1.25;stroke-linejoin:round;stroke-miterlimit:10;}
</style>
<g>
	<g>
		<path d="M12.015,9.093v1.935c0,0.42,0.508,0.63,0.804,0.333l2.528-2.528c0.184-0.184,0.184-0.482,0-0.666l-2.528-2.528
			c-0.297-0.297-0.805-0.087-0.805,0.333v1.944L12.015,9.093z"/>
		<line class="st3" x1="5.015" y1="8.5" x2="13.082" y2="8.5"/>
	</g>
	<path class="st3" d="M10.5,11.25V14c0,0.69-0.56,1.25-1.25,1.25h-7.5c-0.69,0-1.25-0.56-1.25-1.25V3c0-0.69,0.56-1.25,1.25-1.25
		h7.5c0.69,0,1.25,0.56,1.25,1.25v2.25"/>
	<rect y="0" class="st1" width="16" height="16"/>
</g>
</svg>
