<svg width="16" height="16" viewBox="0 0 16 16" fill="none" xmlns="http://www.w3.org/2000/svg">
<path d="M7.84557 4.74201L7.87772 4.77416L7.92307 4.77107C7.97298 4.76768 8.01869 4.76313 8.06263 4.75877C8.13678 4.7514 8.20586 4.74454 8.28142 4.74454C10.4851 4.74454 12.4265 6.03596 13.2961 8.05753C13.0981 8.51618 12.8401 8.93397 12.5407 9.31204L12.4854 9.38185L12.5484 9.44483L13.336 10.2325L13.4134 10.3098L13.4835 10.2258C13.9586 9.65632 14.3481 9.00696 14.6198 8.2906L14.62 8.29024C14.6763 8.14016 14.6763 7.97438 14.62 7.82429L14.6199 7.82397C13.6239 5.19567 11.0768 3.42937 8.28142 3.42937C7.81114 3.42937 7.34979 3.48314 6.90073 3.57877L6.72067 3.61711L6.85084 3.74729L7.84557 4.74201Z" fill="black" stroke="black" stroke-width="0.2"/>
<path d="M12.0373 10.0025L11.9705 9.93567L11.9 9.99854C10.9265 10.8669 9.65593 11.3706 8.28141 11.3706C6.07773 11.3706 4.13633 10.0792 3.2667 8.05758C3.93157 6.51153 5.22573 5.39858 6.78246 4.95806L6.94646 4.91165L6.82594 4.79112L5.95101 3.9162L5.90475 3.86994L5.84384 3.89379C4.08509 4.58242 2.63707 5.99268 1.94234 7.82458L1.94221 7.82493C1.88593 7.97501 1.88593 8.14079 1.94221 8.29088L1.94234 8.29122C2.93894 10.9195 5.48603 12.6858 8.28141 12.6858C9.98262 12.6858 11.5885 12.029 12.8116 10.9255L12.8898 10.855L12.8153 10.7805L12.0373 10.0025Z" fill="black" stroke="black" stroke-width="0.2"/>
<path d="M14.1 13L3.10003 2" stroke="black" stroke-width="1.5" stroke-miterlimit="10"/>
<path d="M7.91562 5.8808L7.87749 5.84266L7.82468 5.85358C6.8017 6.06497 6.03074 6.97236 6.03074 8.05758C6.03074 9.29871 7.04029 10.3083 8.28142 10.3083C9.36669 10.3083 10.2734 9.53727 10.4854 8.51439L10.4964 8.46154L10.4582 8.42338L7.91562 5.8808ZM8.28142 8.99309C7.76569 8.99309 7.34591 8.57332 7.34591 8.05758C7.34591 7.54184 7.76569 7.12207 8.28142 7.12207C8.79716 7.12207 9.21693 7.54184 9.21693 8.05758C9.21693 8.57332 8.79716 8.99309 8.28142 8.99309Z" fill="black" stroke="black" stroke-width="0.2"/>
<path d="M9.89107 6.6461C9.82926 6.57537 9.76299 6.50973 9.69289 6.44792L9.89107 6.6461Z" fill="black"/>
</svg>
