<svg width="16" height="16" viewBox="0 0 16 16" fill="none" xmlns="http://www.w3.org/2000/svg">
<path d="M7.25342 0.999996L1 7.25342L1.86669 8.12011L8.12011 1.86668L7.25342 0.999996Z" fill="black"/>
<path d="M10.6204 9.75434L9.75375 10.621L14.1327 15L14.9994 14.1333L10.6204 9.75434Z" fill="black"/>
<path d="M8.23605 5.66287L9.10195 4.79627L6.71356 2.40718C6.47416 2.16778 6.08636 2.16778 5.84696 2.40718C5.60826 2.64658 5.60826 3.03438 5.84696 3.27378L8.23605 5.66287Z" fill="black"/>
<path d="M4.79696 9.10265L5.66356 8.23606L3.27377 5.84697C3.03437 5.60757 2.64657 5.60757 2.40717 5.84697C2.16847 6.08637 2.16847 6.47417 2.40717 6.71356L4.79696 9.10265Z" fill="black"/>
<path d="M12.1084 5.56697L9.86634 5.51727L8.97874 6.40486L9.30424 6.73036L12.0811 6.79196C12.2344 6.79546 12.2988 6.89766 12.3226 6.95856C12.3471 7.02016 12.3723 7.13846 12.2638 7.24626L7.24695 12.2631C7.13915 12.3709 7.02155 12.3471 6.95925 12.3219C6.89835 12.2981 6.79615 12.2337 6.79265 12.0804L6.73105 9.30355L6.40556 8.97805L5.51796 9.86565L5.56766 12.1077C5.58166 12.7146 5.93936 13.2319 6.50356 13.4587C6.68905 13.5329 6.87945 13.5693 7.06775 13.5693C7.45275 13.5693 7.82585 13.4174 8.11425 13.1297L13.1311 8.11285C13.5602 7.68306 13.6862 7.06636 13.4601 6.50216C13.234 5.93796 12.7153 5.58097 12.1084 5.56697Z" fill="black"/>
<path d="M1.51328 14.7418L14.2973 1.95849" stroke="black" stroke-width="1.5" stroke-miterlimit="10"/>
</svg>
