<?xml version="1.0" encoding="UTF-8" standalone="no"?>
<!-- Created with Inkscape (http://www.inkscape.org/) -->

<svg
   width="16"
   height="16"
   viewBox="0 0 2.3600463 2.3600463"
   version="1.1"
   id="svg1"
   xmlns="http://www.w3.org/2000/svg"
   xmlns:svg="http://www.w3.org/2000/svg">
  <defs
     id="defs1" />
  <g
     id="layer1">
    <path
       style="fill:#800000;stroke-width:0.147503"
       d="M 0.43166426,0.71944043 C 0.45276786,0.59090041 0.47387146,0.46236038 0.64845895,0.41056091 0.82304645,0.35876145 1.1511047,0.38370155 1.4321684,0.36643438 1.7132322,0.3491672 1.9472854,0.28969466 2.0643144,0.25899829 2.1813434,0.22830191 2.1813434,0.22638391 2.1122757,0.30024787 2.0432079,0.37411182 1.9050782,0.5237525 1.8225821,0.68874602 1.7400861,0.85373955 1.7132275,1.0340757 1.6268932,1.2499104 1.5405588,1.465745 1.3947552,1.7170645 1.3228119,1.8427267 1.2508686,1.968389 1.2527886,1.968389 1.185638,1.9607146 1.1184873,1.9530403 0.98227603,1.9376927 0.80097477,1.9444079 0.6196735,1.951123 0.3932941,1.9799001 0.16691018,2.0086777"
       id="path1" />
  </g>
</svg>
