<?xml version="1.0" encoding="utf-8"?>
<!-- Generator: Adobe Illustrator 26.1.0, SVG Export Plug-In . SVG Version: 6.00 Build 0)  -->
<svg version="1.1" id="Layer_1" xmlns="http://www.w3.org/2000/svg" xmlns:xlink="http://www.w3.org/1999/xlink" x="0px" y="0px"
	 width="16px" height="16px" viewBox="0 0 16 16" style="enable-background:new 0 0 16 16;" xml:space="preserve">
<style type="text/css">
	.st0{fill:none;stroke:#000000;stroke-width:1.5;stroke-miterlimit:10;}
	.st1{fill:none;}
	.st2{fill:none;stroke:#FFFFFF;stroke-width:1.5;stroke-miterlimit:10;}
	.st3{fill:none;stroke:#000000;stroke-width:1.5;stroke-linejoin:round;stroke-miterlimit:10;}
	.st4{fill:none;stroke:#000000;stroke-width:1.5;stroke-linecap:square;stroke-linejoin:round;stroke-miterlimit:10;}
</style>
<g>
	<g>
		<path class="st3" d="M13.284,8c0-0.224-0.039-0.438-0.066-0.655l1.214-1.257c0.31-0.321,0.369-0.808,0.146-1.194l-0.602-1.042
			c-0.221-0.384-0.669-0.576-1.099-0.472L11.162,3.79c-0.342-0.258-0.705-0.489-1.105-0.658L9.564,1.466
			C9.438,1.041,9.048,0.75,8.605,0.75H7.402c-0.446,0-0.838,0.295-0.961,0.724l-0.474,1.65C5.558,3.295,5.187,3.527,4.838,3.79
			L3.123,3.379C2.693,3.275,2.245,3.467,2.024,3.851L1.422,4.893C1.199,5.279,1.259,5.767,1.569,6.088l1.214,1.257
			C2.755,7.562,2.716,7.776,2.716,8c0,0.215,0.038,0.419,0.063,0.627l-1.22,1.286c-0.305,0.321-0.362,0.805-0.141,1.188l0.602,1.042
			c0.223,0.386,0.675,0.578,1.108,0.47l1.689-0.421c0.355,0.27,0.732,0.509,1.149,0.683l0.474,1.65
			c0.123,0.429,0.515,0.724,0.961,0.724h1.203c0.443,0,0.833-0.291,0.959-0.716l0.494-1.666c0.408-0.173,0.777-0.411,1.125-0.675
			l1.689,0.421c0.433,0.108,0.885-0.084,1.108-0.47l0.602-1.042c0.221-0.384,0.164-0.867-0.141-1.188l-1.22-1.286
			C13.246,8.419,13.284,8.215,13.284,8z"/>
		<g>
			<path d="M8,6.5c0.827,0,1.5,0.673,1.5,1.5S8.827,9.5,8,9.5S6.5,8.827,6.5,8S7.173,6.5,8,6.5 M8,5C6.343,5,5,6.343,5,8
				s1.343,3,3,3s3-1.343,3-3S9.657,5,8,5L8,5z"/>
		</g>
	</g>
	<rect class="st1" width="16" height="16"/>
</g>
</svg>
